<svg width="40" height="60" viewBox="0 0 40 60" xmlns="http://www.w3.org/2000/svg">
  <!-- Cień -->
  <ellipse cx="20" cy="55" rx="12" ry="6" fill="rgba(0,0,0,0.5)" />
  
  <!-- Nogi (Kości) -->
  <rect x="14" y="40" width="4" height="15" fill="#bdc3c7" />
  <rect x="22" y="40" width="4" height="15" fill="#bdc3c7" />

  <!-- Miednica -->
  <rect x="14" y="35" width="12" height="5" fill="#bdc3c7" />

  <!-- Kręgosłup i Żebra -->
  <rect x="18" y="20" width="4" height="15" fill="#bdc3c7" />
  <line x1="14" y1="22" x2="26" y2="22" stroke="#bdc3c7" stroke-width="2" />
  <line x1="14" y1="26" x2="26" y2="26" stroke="#bdc3c7" stroke-width="2" />
  <line x1="14" y1="30" x2="26" y2="30" stroke="#bdc3c7" stroke-width="2" />

  <!-- Ramiona -->
  <line x1="12" y1="22" x2="12" y2="35" stroke="#bdc3c7" stroke-width="3" />
  <line x1="28" y1="22" x2="28" y2="35" stroke="#bdc3c7" stroke-width="3" />

  <!-- Miecz (Zardzewiały) -->
  <path d="M28 35 L28 25 L35 10 L30 10 L26 25 Z" fill="#8d6e63" />
  
  <!-- Czaszka -->
  <rect x="12" y="5" width="16" height="14" rx="4" fill="#ecf0f1" />
  <!-- Oczodoły -->
  <circle cx="16" cy="12" r="2" fill="#111" />
  <circle cx="24" cy="12" r="2" fill="#111" />
</svg>