<svg width="40" height="60" viewBox="0 0 40 60" xmlns="http://www.w3.org/2000/svg">
  <!-- Cień -->
  <ellipse cx="20" cy="55" rx="14" ry="7" fill="rgba(0,0,0,0.5)" />
  
  <!-- Peleryna (Tył) -->
  <path d="M10 25 Q20 60 30 25 L25 15 L15 15 Z" fill="#800000" />

  <!-- Nogi -->
  <rect x="12" y="40" width="6" height="15" fill="#555" rx="2" />
  <rect x="22" y="40" width="6" height="15" fill="#555" rx="2" />

  <!-- Korpus (Zbroja) -->
  <path d="M10 20 L30 20 L28 45 L12 45 Z" fill="#7f8c8d" stroke="#2c3e50" stroke-width="1"/>
  <path d="M15 20 L15 45 M25 20 L25 45" stroke="#2c3e50" stroke-width="0.5" opacity="0.5"/>

  <!-- Ramiona -->
  <circle cx="8" cy="22" r="5" fill="#95a5a6" stroke="#2c3e50" />
  <circle cx="32" cy="22" r="5" fill="#95a5a6" stroke="#2c3e50" />

  <!-- Głowa (Hełm) -->
  <path d="M10 5 L30 5 L30 20 L20 25 L10 20 Z" fill="#95a5a6" stroke="#2c3e50" stroke-width="1"/>
  <!-- Wizjer -->
  <rect x="12" y="10" width="16" height="4" fill="#111" rx="1" />
  <!-- Pióropusz -->
  <path d="M18 5 L15 -5 L20 0 L25 -5 L22 5" fill="#c0392b" />
</svg>