<svg width="64" height="32" viewBox="0 0 64 32" xmlns="http://www.w3.org/2000/svg">
  <defs>
    <filter id="shadow" x="-20%" y="-20%" width="140%" height="140%">
      <feGaussianBlur in="SourceAlpha" stdDeviation="2"/>
      <feOffset dx="2" dy="2"/>
      <feMerge>
        <feMergeNode/>
        <feMergeNode in="SourceGraphic"/>
      </feMerge>
    </filter>
  </defs>
  <!-- Hole Background -->
  <path d="M16 8 L32 0 L48 8 L32 16 Z" fill="#1a1a1a" stroke="#000" stroke-width="1"/>
  
  <!-- Steps -->
  <g filter="url(#shadow)">
    <!-- Top Step -->
    <path d="M16 8 L32 16 L32 20 L16 12 Z" fill="#5d4037"/>
    <path d="M16 8 L32 0 L48 8 L32 16 Z" fill="none" stroke="#3e2723" stroke-width="1" opacity="0.5"/>
    
    <!-- Middle Step -->
    <path d="M18 10 L30 16 L30 19 L18 13 Z" fill="#4e342e"/>
    
    <!-- Bottom Step -->
    <path d="M20 12 L28 16 L28 18 L20 14 Z" fill="#3e2723"/>
  </g>
  
  <!-- Frame/Stones around -->
  <path d="M12 10 L16 8 L32 16 L28 18 Z" fill="#757575"/> 
  <path d="M48 8 L52 10 L36 18 L32 16 Z" fill="#757575"/>
</svg>